<svg role="img" xmlns="http://www.w3.org/2000/svg" viewBox="0 0 40 40"><title>CV icon</title><path fill="${navigation-items-text-color}" d="M20,40 C8.954305,40 0,31.045695 0,20 C0,8.954305 8.954305,0 20,0 C31.045695,0 40,8.954305 40,20 C40,31.045695 31.045695,40 20,40 Z M12.0692958,11 C11.1540799,11 10.3231727,11.1284494 9.5765493,11.3853521 C8.82992584,11.6422548 8.19169279,12.0075328 7.66183099,12.4811972 C7.13196918,12.9548615 6.72253666,13.5248558 6.43352113,14.1911972 C6.1445056,14.8575385 6,15.6001368 6,16.4190141 L6,23.4035211 C6,24.2223985 6.1445056,24.9649967 6.43352113,25.631338 C6.72253666,26.2976794 7.13196918,26.8676737 7.66183099,27.341338 C8.19169279,27.8150024 8.8259118,28.1802804 9.56450704,28.4371831 C10.3031023,28.6940858 11.1299954,28.8225352 12.0452113,28.8225352 C12.9604271,28.8225352 13.7873203,28.6940858 14.5259155,28.4371831 C15.2645107,28.1802804 15.8987297,27.8150024 16.4285915,27.341338 C16.9584534,26.8676737 17.3678859,26.2976794 17.6569014,25.631338 C17.9459169,24.9649967 18.0904225,24.2223985 18.0904225,23.4035211 L14.4777465,23.4035211 C14.4777465,24.0457779 14.2609881,24.5676036 13.8274648,24.9690141 C13.3939415,25.3704245 12.7998629,25.5711268 12.0452113,25.5711268 C11.2745032,25.5711268 10.6764106,25.3784526 10.2509155,24.9930986 C9.82542041,24.6077446 9.61267606,24.0778907 9.61267606,23.4035211 L9.61267606,16.4190141 C9.61267606,15.7446445 9.8334485,15.2147907 10.275,14.8294366 C10.7165515,14.4440826 11.3146441,14.2514085 12.0692958,14.2514085 C12.807891,14.2514085 13.3939415,14.4440826 13.8274648,14.8294366 C14.2609881,15.2147907 14.4777465,15.7446445 14.4777465,16.4190141 L18.0904225,16.4190141 C18.0904225,15.6001368 17.9459169,14.8575385 17.6569014,14.1911972 C17.3678859,13.5248558 16.9584534,12.9548615 16.4285915,12.4811972 C15.8987297,12.0075328 15.2645107,11.6422548 14.5259155,11.3853521 C13.7873203,11.1284494 12.9684552,11 12.0692958,11 Z M19.957324,11.2408451 L24.4852114,28.5816901 L29.3021128,28.5816901 L33.9263381,11.2408451 L30.2895776,11.2408451 L27.4235212,23.7407042 C27.375352,23.9815505 27.3271834,24.2424634 27.2790142,24.5234507 C27.2308449,24.804438 27.1907045,25.0653509 27.1585916,25.3061972 C27.1104224,25.5952127 27.0702819,25.8842239 27.0381691,26.1732394 L26.8936621,26.1732394 L26.797324,25.3061972 C26.7652112,25.0653509 26.7290848,24.804438 26.6889437,24.5234507 C26.6488027,24.2424634 26.5966201,23.9815505 26.5323945,23.7407042 L23.6181691,11.2408451 L19.957324,11.2408451 Z"/>
</svg>
