<?xml version="1.0" encoding="UTF-8"?>
<svg width="90px" height="90px" viewBox="0 0 90 90" version="1.1" xmlns="http://www.w3.org/2000/svg" xmlns:xlink="http://www.w3.org/1999/xlink">
    <!-- Generator: Sketch 55.2 (78181) - https://sketchapp.com -->
    <title>App Icon</title>
    <desc>Created with Sketch.</desc>
    <defs>
        <path d="M17.0895772,-1.59727351e-15 L42.9104228,6.90439374e-16 C48.8528411,-4.0116516e-16 51.0077056,0.618729126 53.1801649,1.78057308 C55.3526242,2.94241704 57.057583,4.64737582 58.2194269,6.81983513 C59.3812709,8.99229444 60,11.1471589 60,17.0895772 L60,42.9104228 C60,48.8528411 59.3812709,51.0077056 58.2194269,53.1801649 C57.057583,55.3526242 55.3526242,57.057583 53.1801649,58.2194269 C51.0077056,59.3812709 48.8528411,60 42.9104228,60 L17.0895772,60 C11.1471589,60 8.99229444,59.3812709 6.81983513,58.2194269 C4.64737582,57.057583 2.94241704,55.3526242 1.78057308,53.1801649 C0.618729126,51.0077056 7.9434019e-16,48.8528411 -1.36712706e-15,42.9104228 L4.60292916e-16,17.0895772 C-2.6744344e-16,11.1471589 0.618729126,8.99229444 1.78057308,6.81983513 C2.94241704,4.64737582 4.64737582,2.94241704 6.81983513,1.78057308 C8.99229444,0.618729126 11.1471589,9.28061909e-16 17.0895772,-1.59727351e-15 Z" id="path-1"></path>
        <filter x="-37.5%" y="-37.5%" width="175.0%" height="175.0%" filterUnits="objectBoundingBox" id="filter-3">
            <feOffset dx="0" dy="0" in="SourceAlpha" result="shadowOffsetOuter1"></feOffset>
            <feGaussianBlur stdDeviation="7.5" in="shadowOffsetOuter1" result="shadowBlurOuter1"></feGaussianBlur>
            <feColorMatrix values="0 0 0 0 0   0 0 0 0 0   0 0 0 0 0  0 0 0 0.2 0" type="matrix" in="shadowBlurOuter1"></feColorMatrix>
        </filter>
        <linearGradient x1="50%" y1="0%" x2="50%" y2="100%" id="linearGradient-4">
            <stop stop-color="#66A774" offset="0%"></stop>
            <stop stop-color="#009678" offset="100%"></stop>
        </linearGradient>
        <linearGradient x1="50%" y1="0%" x2="50%" y2="100%" id="linearGradient-5">
            <stop stop-color="#7B83F4" stop-opacity="0.0845989948" offset="0%"></stop>
            <stop stop-color="#0079FD" offset="94.8717272%"></stop>
        </linearGradient>
        <circle id="path-6" cx="20.15625" cy="30" r="19.21875"></circle>
        <filter x="-3.9%" y="-3.9%" width="107.8%" height="107.8%" filterUnits="objectBoundingBox" id="filter-7">
            <feOffset dx="0" dy="0" in="SourceAlpha" result="shadowOffsetOuter1"></feOffset>
            <feGaussianBlur stdDeviation="0.5" in="shadowOffsetOuter1" result="shadowBlurOuter1"></feGaussianBlur>
            <feColorMatrix values="0 0 0 0 0   0 0 0 0 0   0 0 0 0 0  0 0 0 0.5 0" type="matrix" in="shadowBlurOuter1"></feColorMatrix>
        </filter>
    </defs>
    <g id="Page-1" stroke="none" stroke-width="1" fill="none" fill-rule="evenodd">
        <g id="iOS-App-Icon-Template" transform="translate(-448.000000, -640.000000)">
            <g id="App-Icon" transform="translate(459.000000, 655.000000)">
                <g transform="translate(4.000000, 0.000000)">
                    <mask id="mask-2" fill="white">
                        <use xlink:href="#path-1"></use>
                    </mask>
                    <g id="Mask" fill="black" fill-opacity="1">
                        <use filter="url(#filter-3)" xlink:href="#path-1"></use>
                    </g>
                    <g id="Icon" mask="url(#mask-2)">
                        <rect id="Background" fill="url(#linearGradient-4)" x="0" y="0" width="60" height="60"></rect>
                        <g id="Glyph" stroke-width="1" transform="translate(9.843750, 0.000000)">
                            <polygon id="Rectangle" fill="url(#linearGradient-5)" points="0 0 39.9609375 0 31.5986372 22.5330805 8.46904474 22.5330805"></polygon>
                            <g id="Oval">
                                <use fill="black" fill-opacity="1" filter="url(#filter-7)" xlink:href="#path-6"></use>
                                <use fill="#FFFFFF" fill-rule="evenodd" xlink:href="#path-6"></use>
                            </g>
                            <circle id="Oval" stroke="#979797" stroke-width="0.5" fill="#0079FD" cx="20.2148438" cy="30.0585938" r="13.8867188"></circle>
                            <path d="M11.015625,15.8862673 L20.0976562,5.7421875 L29.1796875,15.8862673 C26.5890485,13.5979719 23.7119751,12.3711766 20.5484673,12.2058816 C14.5094485,11.8903395 11.015625,15.9375 11.015625,15.9375 C11.015625,15.9375 11.015625,15.8862673 11.015625,15.8862673 Z" id="Path-3" fill="#0079FD"></path>
                        </g>
                    </g>
                </g>
            </g>
        </g>
    </g>
</svg>