<?xml version="1.0" encoding="UTF-8"?>
<svg width="90px" height="90px" viewBox="0 0 90 90" version="1.1" xmlns="http://www.w3.org/2000/svg" xmlns:xlink="http://www.w3.org/1999/xlink">
    <!-- Generator: Sketch 55.2 (78181) - https://sketchapp.com -->
    <title>App Icon</title>
    <desc>Created with Sketch.</desc>
    <defs>
        <path d="M17.0895772,-1.59727351e-15 L42.9104228,6.90439374e-16 C48.8528411,-4.0116516e-16 51.0077056,0.618729126 53.1801649,1.78057308 C55.3526242,2.94241704 57.057583,4.64737582 58.2194269,6.81983513 C59.3812709,8.99229444 60,11.1471589 60,17.0895772 L60,42.9104228 C60,48.8528411 59.3812709,51.0077056 58.2194269,53.1801649 C57.057583,55.3526242 55.3526242,57.057583 53.1801649,58.2194269 C51.0077056,59.3812709 48.8528411,60 42.9104228,60 L17.0895772,60 C11.1471589,60 8.99229444,59.3812709 6.81983513,58.2194269 C4.64737582,57.057583 2.94241704,55.3526242 1.78057308,53.1801649 C0.618729126,51.0077056 7.9434019e-16,48.8528411 -1.36712706e-15,42.9104228 L4.60292916e-16,17.0895772 C-2.6744344e-16,11.1471589 0.618729126,8.99229444 1.78057308,6.81983513 C2.94241704,4.64737582 4.64737582,2.94241704 6.81983513,1.78057308 C8.99229444,0.618729126 11.1471589,9.28061909e-16 17.0895772,-1.59727351e-15 Z" id="path-1"></path>
        <filter x="-37.5%" y="-37.5%" width="175.0%" height="175.0%" filterUnits="objectBoundingBox" id="filter-3">
            <feOffset dx="0" dy="0" in="SourceAlpha" result="shadowOffsetOuter1"></feOffset>
            <feGaussianBlur stdDeviation="7.5" in="shadowOffsetOuter1" result="shadowBlurOuter1"></feGaussianBlur>
            <feColorMatrix values="0 0 0 0 0   0 0 0 0 0   0 0 0 0 0  0 0 0 0.2 0" type="matrix" in="shadowBlurOuter1"></feColorMatrix>
        </filter>
        <linearGradient x1="50%" y1="1.61792652%" x2="50%" y2="100%" id="linearGradient-4">
            <stop stop-color="#FE6600" offset="0%"></stop>
            <stop stop-color="#FF5A5A" offset="100%"></stop>
        </linearGradient>
    </defs>
    <g id="Page-1" stroke="none" stroke-width="1" fill="none" fill-rule="evenodd">
        <g id="iOS-App-Icon-Template" transform="translate(-448.000000, -640.000000)">
            <g id="App-Icon" transform="translate(459.000000, 655.000000)">
                <g transform="translate(4.000000, 0.000000)">
                    <mask id="mask-2" fill="white">
                        <use xlink:href="#path-1"></use>
                    </mask>
                    <g id="Mask" fill="black" fill-opacity="1">
                        <use filter="url(#filter-3)" xlink:href="#path-1"></use>
                    </g>
                    <g id="Icon" mask="url(#mask-2)">
                        <rect id="Background" fill="url(#linearGradient-4)" x="0" y="0" width="60" height="60"></rect>
                        <g id="Shape" stroke-width="1" transform="translate(7.031250, 7.031250)" fill="#FFFFFF">
                            <path d="M23.2020073,0 C10.4080428,0 0,10.4091222 0,23.2034976 C0,24.3808484 0.958243348,25.3391225 2.13555633,25.3391225 C3.31361444,25.3391225 4.27185779,24.3808484 4.27185779,23.2034976 C4.27185779,12.7653141 12.7634139,4.27274014 23.2012622,4.27274014 C33.6391104,4.27274014 42.1314117,12.7653141 42.1314117,23.2034976 C42.1314117,33.641681 33.6406007,42.1335099 23.2020073,42.1335099 C17.7200506,42.1335099 12.5845816,39.7981824 8.98409024,35.6953385 L9.88570335,35.021715 C10.4184747,34.6230551 10.6897038,33.9911605 10.6122098,33.3302047 C10.5339706,32.6692489 10.1219111,32.1170863 9.51015541,31.8547904 L3.19513801,29.1461384 C2.47086699,28.8368976 1.60874603,29.0336195 1.08938707,29.6178239 C0.742154257,30.0090322 0.578224602,30.5328788 0.640815925,31.0552351 L1.45301285,37.8786535 C1.56254767,38.805631 2.35015515,39.5045899 3.28455418,39.5045899 C3.68171103,39.5045899 4.06098464,39.3771677 4.38362801,39.1364815 L5.55348964,38.2616651 C9.97586466,43.4479699 16.3639053,46.40625 23.2034976,46.40625 C35.997462,46.40625 46.40625,35.9978729 46.40625,23.2034976 C46.40625,10.4091222 35.9959718,0 23.2020073,0 Z" id="Outter-Path" fill-rule="nonzero"></path>
                            <path d="M19.8951792,22.8981519 L15.3513673,18.60407 C14.6043426,17.898102 14.5668573,16.7157393 15.2676417,15.9631889 C15.9684261,15.2106386 17.1421074,15.1728761 17.8891322,15.878844 L22.3236094,20.0696004 C22.53483,20.0236663 22.7540825,19.9994784 22.9789429,19.9994784 C23.3556901,19.9994784 23.7166948,20.0673789 24.0505561,20.1916949 L30.3513072,14.0447813 C30.9819915,13.4294955 31.9883874,13.4457604 32.5991554,14.0811097 C33.2099234,14.7164591 33.193778,15.7302992 32.5630937,16.3455849 L26.0437316,22.705772 C26.0610434,22.8391685 26.0699743,22.9752204 26.0699743,23.1133735 C26.0699743,24.355549 25.3479744,25.427845 24.3036706,25.9276091 L24.3036706,38.9497545 C24.3036706,39.6376572 23.7501099,40.1953125 23.0672581,40.1953125 C22.3844063,40.1953125 21.8308455,39.6376572 21.8308455,38.9497545 L21.8308455,26.0053974 C20.6922037,25.546244 19.8879115,24.4244298 19.8879115,23.1133735 C19.8879115,23.0410303 19.8903604,22.9692632 19.8951792,22.8981519 Z M23.0273438,25.078125 C24.159959,25.078125 25.078125,24.159959 25.078125,23.0273438 C25.078125,21.8947285 24.159959,20.9765625 23.0273438,20.9765625 C21.8947285,20.9765625 20.9765625,21.8947285 20.9765625,23.0273438 C20.9765625,24.159959 21.8947285,25.078125 23.0273438,25.078125 Z" id="Combined-Shape" fill-rule="nonzero"></path>
                        </g>
                    </g>
                </g>
            </g>
        </g>
    </g>
</svg>